<svg width="24" height="24" viewBox="0 0 24 24" fill="none" xmlns="http://www.w3.org/2000/svg">
<g clip-path="url(#clip0_104_502)">
<path d="M3.90338 19.035H6.88631V11.7907L2.625 8.59473V17.7566C2.625 18.464 3.19819 19.035 3.90338 19.035Z" fill="#4285F4"/>
<path d="M17.1136 19.0351H20.0966C20.804 19.0351 21.375 18.4619 21.375 17.7567V8.59473L17.1136 11.7908" fill="#34A853"/>
<path d="M17.1136 6.25085V11.7906L21.375 8.5947V6.88995C21.375 5.30904 19.5703 4.40773 18.3068 5.35592" fill="#FBBC04"/>
<path d="M6.88641 11.7904V6.25068L12 10.0857L17.1136 6.25049V11.7903L12 15.6256" fill="#EA4335"/>
<path d="M2.625 6.88995V8.59451L6.88631 11.7905V6.25085L5.69316 5.35592C4.42753 4.40773 2.625 5.30904 2.625 6.88995Z" fill="#C5221F"/>
</g>
<defs>
<clipPath id="clip0_104_502">
<rect width="24" height="24" fill="white"/>
</clipPath>
</defs>
</svg>
