<svg width="44" height="44" viewBox="0 0 44 44" fill="none" xmlns="http://www.w3.org/2000/svg">
<rect width="44" height="44" rx="9" fill="#F5F8FF"/>
<path d="M22 28.7501C21.1337 28.7508 20.2807 28.5369 19.5172 28.1274C18.7538 27.7178 18.1038 27.1255 17.6253 26.4033L18.8748 25.5731C19.2168 26.0889 19.6812 26.512 20.2265 26.8047C20.7718 27.0974 21.3811 27.2506 22 27.2506C22.6189 27.2506 23.2282 27.0974 23.7735 26.8047C24.3188 26.512 24.7832 26.0889 25.1253 25.5731L26.3748 26.4033C25.8962 27.1255 25.2462 27.7178 24.4828 28.1274C23.7193 28.5369 22.8663 28.7508 22 28.7501ZM25 20.5001C24.7033 20.5001 24.4133 20.5881 24.1666 20.7529C23.92 20.9177 23.7277 21.152 23.6142 21.4261C23.5006 21.7001 23.4709 22.0017 23.5288 22.2927C23.5867 22.5837 23.7296 22.851 23.9393 23.0607C24.1491 23.2705 24.4164 23.4134 24.7074 23.4713C24.9983 23.5291 25.2999 23.4994 25.574 23.3859C25.8481 23.2724 26.0824 23.0801 26.2472 22.8334C26.412 22.5868 26.5 22.2967 26.5 22.0001C26.502 21.8025 26.4646 21.6066 26.3899 21.4237C26.3152 21.2408 26.2048 21.0746 26.0651 20.9349C25.9254 20.7953 25.7593 20.6848 25.5764 20.6102C25.3935 20.5355 25.1975 20.4981 25 20.5001ZM19 20.5001C18.7033 20.5001 18.4133 20.5881 18.1666 20.7529C17.92 20.9177 17.7277 21.152 17.6142 21.4261C17.5006 21.7001 17.4709 22.0017 17.5288 22.2927C17.5867 22.5837 17.7296 22.851 17.9393 23.0607C18.1491 23.2705 18.4164 23.4134 18.7074 23.4713C18.9983 23.5291 19.2999 23.4994 19.574 23.3859C19.8481 23.2724 20.0824 23.0801 20.2472 22.8334C20.412 22.5868 20.5 22.2967 20.5 22.0001C20.502 21.8025 20.4646 21.6066 20.3899 21.4237C20.3152 21.2408 20.2048 21.0746 20.0651 20.9349C19.9254 20.7953 19.7593 20.6848 19.5764 20.6102C19.3935 20.5355 19.1975 20.4981 19 20.5001Z" fill="black"/>
<path d="M32.5 22V20.5H31V17.5C30.999 16.7047 30.6826 15.9422 30.1202 15.3798C29.5578 14.8174 28.7953 14.501 28 14.5H26.5V11.5H25V14.5H19V11.5H17.5V14.5H16C15.2047 14.501 14.4422 14.8174 13.8798 15.3798C13.3174 15.9422 13.001 16.7047 13 17.5V20.5H11.5V22H13V25.75H11.5V27.25H13V29.5C13.001 30.2953 13.3174 31.0578 13.8798 31.6202C14.4422 32.1826 15.2047 32.499 16 32.5H28C28.7953 32.499 29.5578 32.1826 30.1202 31.6202C30.6826 31.0578 30.999 30.2953 31 29.5V27.25H32.5V25.75H31V22H32.5ZM29.5 29.5C29.5 29.8978 29.342 30.2794 29.0607 30.5607C28.7794 30.842 28.3978 31 28 31H16C15.6022 31 15.2206 30.842 14.9393 30.5607C14.658 30.2794 14.5 29.8978 14.5 29.5V17.5C14.5 17.1022 14.658 16.7206 14.9393 16.4393C15.2206 16.158 15.6022 16 16 16H28C28.3978 16 28.7794 16.158 29.0607 16.4393C29.342 16.7206 29.5 17.1022 29.5 17.5V29.5Z" fill="black"/>
</svg>
