<svg width="44" height="44" viewBox="0 0 44 44" fill="none" xmlns="http://www.w3.org/2000/svg">
<rect width="44" height="44" rx="9" fill="#F5F8FF"/>
<path d="M27.248 17.3706H16.7525C15.9028 17.3706 15.214 18.0594 15.214 18.9091V22.8306C15.214 23.6803 15.9028 24.3691 16.7525 24.3691H27.248C28.0977 24.3691 28.7865 23.6803 28.7865 22.8306V18.9091C28.7865 18.0594 28.0977 17.3706 27.248 17.3706Z" stroke="#050505" stroke-linecap="round" stroke-linejoin="round"/>
<path d="M27.559 14.6499C27.7121 14.6498 27.8637 14.6799 28.0051 14.7385C28.1465 14.797 28.275 14.8829 28.3833 14.9911C28.4915 15.0994 28.5774 15.2279 28.6359 15.3693C28.6945 15.5107 28.7246 15.6623 28.7245 15.8154V16.0304C28.7245 16.5237 28.9205 16.9968 29.2693 17.3456C29.6181 17.6944 30.0912 17.8904 30.5845 17.8904C30.7376 17.8903 30.8892 17.9204 31.0306 17.979C31.172 18.0375 31.3005 18.1234 31.4088 18.2316C31.517 18.3399 31.6029 18.4684 31.6614 18.6098C31.72 18.7512 31.7501 18.9028 31.75 19.0559V22.6349C31.7501 22.7879 31.72 22.9395 31.6615 23.0809C31.6029 23.2223 31.5171 23.3508 31.409 23.459C31.3008 23.5672 31.1723 23.6531 31.0309 23.7117C30.8896 23.7703 30.738 23.8004 30.585 23.8004C30.0917 23.8004 29.6186 23.9964 29.2698 24.3452C28.921 24.694 28.725 25.1671 28.725 25.6604V25.8754C28.7251 26.0285 28.6949 26.1801 28.6364 26.3216C28.5778 26.4631 28.4919 26.5916 28.3836 26.6999C28.2753 26.8081 28.1467 26.8939 28.0052 26.9525C27.8638 27.011 27.7121 27.041 27.559 27.0409H18.199L16.5025 29.0969C16.089 29.5979 15.2755 29.3054 15.2755 28.6559V25.6609C15.2755 25.4166 15.2274 25.1748 15.1339 24.9491C15.0404 24.7234 14.9034 24.5184 14.7307 24.3457C14.558 24.173 14.353 24.036 14.1273 23.9425C13.9016 23.849 13.6598 23.8009 13.4155 23.8009C13.2624 23.801 13.1108 23.7709 12.9693 23.7123C12.8278 23.6537 12.6993 23.5678 12.591 23.4595C12.4828 23.3512 12.397 23.2226 12.3384 23.0812C12.2799 22.9397 12.2499 22.788 12.25 22.6349V19.0559C12.2499 18.9029 12.28 18.7513 12.3385 18.6099C12.3971 18.4685 12.4829 18.34 12.591 18.2318C12.6992 18.1236 12.8277 18.0377 12.9691 17.9791C13.1104 17.9206 13.262 17.8904 13.415 17.8904C13.9083 17.8904 14.3814 17.6944 14.7302 17.3456C15.079 16.9968 15.275 16.5237 15.275 16.0304V15.8154C15.275 15.6623 15.3052 15.5108 15.3638 15.3693C15.4224 15.2279 15.5083 15.0995 15.6166 14.9913C15.7249 14.8831 15.8534 14.7973 15.9949 14.7388C16.1363 14.6803 16.2879 14.6503 16.441 14.6504L27.559 14.6499Z" stroke="#050505" stroke-linecap="round" stroke-linejoin="round"/>
<path d="M17.8485 20.0349C17.8485 19.7064 17.979 19.3914 18.2113 19.1591C18.4435 18.9269 18.7585 18.7964 19.087 18.7964C19.4155 18.7964 19.7305 18.9269 19.9628 19.1591C20.195 19.3914 20.3255 19.7064 20.3255 20.0349V21.4479C20.3255 21.7764 20.195 22.0914 19.9628 22.3236C19.7305 22.5559 19.4155 22.6864 19.087 22.6864C18.7585 22.6864 18.4435 22.5559 18.2113 22.3236C17.979 22.0914 17.8485 21.7764 17.8485 21.4479V20.0349ZM23.6745 20.0349C23.6745 19.7064 23.805 19.3914 24.0373 19.1591C24.2695 18.9269 24.5845 18.7964 24.913 18.7964C25.2415 18.7964 25.5565 18.9269 25.7888 19.1591C26.021 19.3914 26.1515 19.7064 26.1515 20.0349V21.4479C26.1515 21.7764 26.021 22.0914 25.7888 22.3236C25.5565 22.5559 25.2415 22.6864 24.913 22.6864C24.5845 22.6864 24.2695 22.5559 24.0373 22.3236C23.805 22.0914 23.6745 21.7764 23.6745 21.4479V20.0349Z" stroke="#050505" stroke-linecap="round" stroke-linejoin="round"/>
</svg>
